<svg xmlns="http://www.w3.org/2000/svg" width="24" height="24" viewBox="0 0 24 24" fill="none" class="injected-svg" data-src="https://hugeicons.storage.googleapis.com/icons/cancel-02-stroke-sharp.svg?type=svg" xmlns:xlink="http://www.w3.org/1999/xlink" role="img" color="#000000">
<path d="M19.9706 6.71684L17.2845 4.02944C17.2453 3.99019 17.1817 3.99019 17.1424 4.02944L12.0117 9.17371L6.85757 4.04009C6.81833 4.00084 6.75471 4.00084 6.71547 4.04009L4.02943 6.72749C3.99019 6.76675 3.99019 6.8304 4.02943 6.86965L9.18355 12.0033L4.05063 17.141C4.01139 17.1803 4.01139 17.2439 4.05063 17.2832L6.73667 19.9706C6.77591 20.0098 6.83953 20.0098 6.87877 19.9706L12.0117 14.8328L17.1246 19.9688C17.1638 20.008 17.2274 20.008 17.2666 19.9688L19.9527 17.2814C19.9919 17.2421 19.9919 17.1785 19.9527 17.1392L14.8398 12.0033L19.9706 6.859C20.0098 6.81975 20.0098 6.7561 19.9706 6.71684Z" stroke="#000000" stroke-width="1.5"></path>
</svg>